<mxfile host="app.diagrams.net" agent="Mozilla/5.0 (Windows NT 10.0; Win64; x64) AppleWebKit/537.36 (KHTML, like Gecko) Chrome/141.0.0.0 Safari/537.36" version="28.2.8">
  <diagram name="PÃ¡gina-1" id="uEZ-HouaWQfXOkWYRxOO">
    <mxGraphModel dx="1489" dy="420" grid="0" gridSize="10" guides="1" tooltips="1" connect="1" arrows="1" fold="1" page="0" pageScale="1" pageWidth="827" pageHeight="1169" math="0" shadow="0">
      <root>
        <mxCell id="0" />
        <mxCell id="1" parent="0" />
        <mxCell id="TcX_-UwyAMN_b-jETB6I-1" value="&lt;font style=&quot;font-size: 20px;&quot;&gt;1&lt;/font&gt;" style="ellipse;whiteSpace=wrap;html=1;aspect=fixed;strokeColor=light-dark(#000000,#FF0000);" parent="1" vertex="1">
          <mxGeometry x="80" y="680" width="80" height="80" as="geometry" />
        </mxCell>
        <mxCell id="TcX_-UwyAMN_b-jETB6I-2" value="&lt;font style=&quot;font-size: 20px;&quot;&gt;3&lt;/font&gt;" style="ellipse;whiteSpace=wrap;html=1;aspect=fixed;strokeColor=light-dark(#000000,#FF0000);" parent="1" vertex="1">
          <mxGeometry x="270" y="790" width="80" height="80" as="geometry" />
        </mxCell>
        <mxCell id="TcX_-UwyAMN_b-jETB6I-3" value="&lt;font style=&quot;font-size: 20px;&quot;&gt;2&lt;/font&gt;" style="ellipse;whiteSpace=wrap;html=1;aspect=fixed;strokeColor=light-dark(#000000,#FF0000);" parent="1" vertex="1">
          <mxGeometry x="270" y="570" width="80" height="80" as="geometry" />
        </mxCell>
        <mxCell id="TcX_-UwyAMN_b-jETB6I-9" value="" style="endArrow=classic;html=1;rounded=0;exitX=1;exitY=1;exitDx=0;exitDy=0;entryX=0;entryY=0.5;entryDx=0;entryDy=0;strokeColor=light-dark(#000000,#FF0000);" parent="1" source="TcX_-UwyAMN_b-jETB6I-1" target="TcX_-UwyAMN_b-jETB6I-2" edge="1">
          <mxGeometry width="50" height="50" relative="1" as="geometry">
            <mxPoint x="210" y="827" as="sourcePoint" />
            <mxPoint x="332" y="720" as="targetPoint" />
          </mxGeometry>
        </mxCell>
        <mxCell id="TcX_-UwyAMN_b-jETB6I-13" value="" style="group" parent="1" vertex="1" connectable="0">
          <mxGeometry x="170" y="620" width="80" height="60" as="geometry" />
        </mxCell>
        <mxCell id="TcX_-UwyAMN_b-jETB6I-19" value="" style="group" parent="TcX_-UwyAMN_b-jETB6I-13" vertex="1" connectable="0">
          <mxGeometry width="80" height="60" as="geometry" />
        </mxCell>
        <mxCell id="TcX_-UwyAMN_b-jETB6I-7" value="" style="endArrow=classic;html=1;rounded=0;exitX=1;exitY=0;exitDx=0;exitDy=0;entryX=0;entryY=0.5;entryDx=0;entryDy=0;" parent="TcX_-UwyAMN_b-jETB6I-19" source="TcX_-UwyAMN_b-jETB6I-1" target="TcX_-UwyAMN_b-jETB6I-3" edge="1">
          <mxGeometry width="50" height="50" relative="1" as="geometry">
            <mxPoint x="250" y="150" as="sourcePoint" />
            <mxPoint x="300" y="100" as="targetPoint" />
          </mxGeometry>
        </mxCell>
        <mxCell id="TcX_-UwyAMN_b-jETB6I-11" value="&lt;font style=&quot;font-size: 20px; color: light-dark(rgb(0, 0, 0), rgb(51, 255, 51));&quot;&gt;A&lt;/font&gt;" style="text;html=1;whiteSpace=wrap;strokeColor=none;fillColor=none;align=center;verticalAlign=middle;rounded=0;" parent="TcX_-UwyAMN_b-jETB6I-19" vertex="1">
          <mxGeometry width="60" height="30" as="geometry" />
        </mxCell>
        <mxCell id="TcX_-UwyAMN_b-jETB6I-12" value="&lt;font style=&quot;font-size: 20px;&quot;&gt;2&lt;/font&gt;" style="text;html=1;whiteSpace=wrap;strokeColor=none;fillColor=none;align=center;verticalAlign=middle;rounded=0;" parent="TcX_-UwyAMN_b-jETB6I-19" vertex="1">
          <mxGeometry x="20" y="30" width="60" height="30" as="geometry" />
        </mxCell>
        <mxCell id="TcX_-UwyAMN_b-jETB6I-48" value="&lt;font style=&quot;font-size: 20px;&quot;&gt;2&lt;/font&gt;" style="text;html=1;whiteSpace=wrap;strokeColor=none;fillColor=none;align=center;verticalAlign=middle;rounded=0;" parent="1" vertex="1">
          <mxGeometry x="150" y="780" width="60" height="30" as="geometry" />
        </mxCell>
        <mxCell id="TcX_-UwyAMN_b-jETB6I-49" value="&lt;span style=&quot;font-size: 20px;&quot;&gt;B&lt;/span&gt;" style="text;html=1;whiteSpace=wrap;strokeColor=none;fillColor=none;align=center;verticalAlign=middle;rounded=0;" parent="1" vertex="1">
          <mxGeometry x="180" y="750" width="60" height="30" as="geometry" />
        </mxCell>
        <mxCell id="TcX_-UwyAMN_b-jETB6I-50" value="&lt;font style=&quot;font-size: 20px;&quot;&gt;4&lt;/font&gt;" style="ellipse;whiteSpace=wrap;html=1;aspect=fixed;strokeColor=light-dark(#000000,#FF0000);" parent="1" vertex="1">
          <mxGeometry x="430" y="570" width="80" height="80" as="geometry" />
        </mxCell>
        <mxCell id="TcX_-UwyAMN_b-jETB6I-51" value="" style="endArrow=classic;html=1;rounded=0;exitX=1;exitY=0.5;exitDx=0;exitDy=0;entryX=0;entryY=0.5;entryDx=0;entryDy=0;strokeColor=light-dark(#000000,#FF0000);" parent="1" source="TcX_-UwyAMN_b-jETB6I-3" target="TcX_-UwyAMN_b-jETB6I-50" edge="1">
          <mxGeometry width="50" height="50" relative="1" as="geometry">
            <mxPoint x="330" y="740" as="sourcePoint" />
            <mxPoint x="452" y="822" as="targetPoint" />
          </mxGeometry>
        </mxCell>
        <mxCell id="TcX_-UwyAMN_b-jETB6I-52" value="&lt;span style=&quot;font-size: 20px;&quot;&gt;C&lt;/span&gt;" style="text;html=1;whiteSpace=wrap;strokeColor=none;fillColor=none;align=center;verticalAlign=middle;rounded=0;" parent="1" vertex="1">
          <mxGeometry x="360" y="580" width="60" height="30" as="geometry" />
        </mxCell>
        <mxCell id="TcX_-UwyAMN_b-jETB6I-53" value="&lt;font style=&quot;font-size: 20px;&quot;&gt;12&lt;/font&gt;" style="text;html=1;whiteSpace=wrap;strokeColor=none;fillColor=none;align=center;verticalAlign=middle;rounded=0;" parent="1" vertex="1">
          <mxGeometry x="360" y="610" width="60" height="30" as="geometry" />
        </mxCell>
        <mxCell id="TcX_-UwyAMN_b-jETB6I-54" value="" style="endArrow=classic;html=1;rounded=0;dashed=1;exitX=0.5;exitY=1;exitDx=0;exitDy=0;strokeColor=light-dark(#000000,#FF0000);" parent="1" source="TcX_-UwyAMN_b-jETB6I-3" edge="1">
          <mxGeometry width="50" height="50" relative="1" as="geometry">
            <mxPoint x="420" y="690" as="sourcePoint" />
            <mxPoint x="310" y="650" as="targetPoint" />
            <Array as="points">
              <mxPoint x="310" y="790" />
            </Array>
          </mxGeometry>
        </mxCell>
        <mxCell id="TcX_-UwyAMN_b-jETB6I-55" value="&lt;span style=&quot;font-size: 20px;&quot;&gt;X&lt;/span&gt;" style="text;html=1;whiteSpace=wrap;strokeColor=none;fillColor=none;align=center;verticalAlign=middle;rounded=0;" parent="1" vertex="1">
          <mxGeometry x="260" y="705" width="60" height="30" as="geometry" />
        </mxCell>
        <mxCell id="TcX_-UwyAMN_b-jETB6I-56" value="&lt;span style=&quot;font-size: 20px;&quot;&gt;O&lt;/span&gt;" style="text;html=1;whiteSpace=wrap;strokeColor=none;fillColor=none;align=center;verticalAlign=middle;rounded=0;" parent="1" vertex="1">
          <mxGeometry x="300" y="705" width="60" height="30" as="geometry" />
        </mxCell>
        <mxCell id="TcX_-UwyAMN_b-jETB6I-57" value="&lt;span style=&quot;font-size: 20px;&quot;&gt;5&lt;/span&gt;" style="ellipse;whiteSpace=wrap;html=1;aspect=fixed;strokeColor=light-dark(#000000,#FF0000);" parent="1" vertex="1">
          <mxGeometry x="570" y="570" width="80" height="80" as="geometry" />
        </mxCell>
        <mxCell id="TcX_-UwyAMN_b-jETB6I-59" value="" style="endArrow=classic;html=1;rounded=0;exitX=1;exitY=0.5;exitDx=0;exitDy=0;strokeColor=light-dark(#000000,#FF0000);" parent="1" source="TcX_-UwyAMN_b-jETB6I-50" target="TcX_-UwyAMN_b-jETB6I-57" edge="1">
          <mxGeometry width="50" height="50" relative="1" as="geometry">
            <mxPoint x="440" y="800" as="sourcePoint" />
            <mxPoint x="562" y="882" as="targetPoint" />
          </mxGeometry>
        </mxCell>
        <mxCell id="TcX_-UwyAMN_b-jETB6I-60" value="&lt;span style=&quot;font-size: 20px;&quot;&gt;6&lt;/span&gt;" style="ellipse;whiteSpace=wrap;html=1;aspect=fixed;strokeColor=light-dark(#000000,#FF0000);" parent="1" vertex="1">
          <mxGeometry x="730" y="470" width="80" height="80" as="geometry" />
        </mxCell>
        <mxCell id="TcX_-UwyAMN_b-jETB6I-61" value="&lt;span style=&quot;font-size: 20px;&quot;&gt;7&lt;/span&gt;" style="ellipse;whiteSpace=wrap;html=1;aspect=fixed;strokeColor=light-dark(#000000,#FF0000);" parent="1" vertex="1">
          <mxGeometry x="920" y="570" width="80" height="80" as="geometry" />
        </mxCell>
        <mxCell id="TcX_-UwyAMN_b-jETB6I-64" value="" style="endArrow=classic;html=1;rounded=0;strokeColor=light-dark(#000000,#FF0000);" parent="1" source="TcX_-UwyAMN_b-jETB6I-60" target="TcX_-UwyAMN_b-jETB6I-61" edge="1">
          <mxGeometry width="50" height="50" relative="1" as="geometry">
            <mxPoint x="610" y="800" as="sourcePoint" />
            <mxPoint x="670" y="800" as="targetPoint" />
          </mxGeometry>
        </mxCell>
        <mxCell id="TcX_-UwyAMN_b-jETB6I-65" value="" style="endArrow=classic;html=1;rounded=0;strokeColor=light-dark(#000000,#FF0000);" parent="1" source="TcX_-UwyAMN_b-jETB6I-57" target="TcX_-UwyAMN_b-jETB6I-60" edge="1">
          <mxGeometry width="50" height="50" relative="1" as="geometry">
            <mxPoint x="740" y="790" as="sourcePoint" />
            <mxPoint x="800" y="790" as="targetPoint" />
          </mxGeometry>
        </mxCell>
        <mxCell id="TcX_-UwyAMN_b-jETB6I-66" value="" style="endArrow=classic;html=1;rounded=0;" parent="1" source="TcX_-UwyAMN_b-jETB6I-57" target="TcX_-UwyAMN_b-jETB6I-61" edge="1">
          <mxGeometry width="50" height="50" relative="1" as="geometry">
            <mxPoint x="870" y="770" as="sourcePoint" />
            <mxPoint x="930" y="770" as="targetPoint" />
          </mxGeometry>
        </mxCell>
        <mxCell id="TcX_-UwyAMN_b-jETB6I-67" value="&lt;span style=&quot;font-size: 20px;&quot;&gt;D&lt;/span&gt;" style="text;html=1;whiteSpace=wrap;strokeColor=none;fillColor=none;align=center;verticalAlign=middle;rounded=0;" parent="1" vertex="1">
          <mxGeometry x="510" y="580" width="60" height="30" as="geometry" />
        </mxCell>
        <mxCell id="TcX_-UwyAMN_b-jETB6I-68" value="&lt;font style=&quot;font-size: 20px;&quot;&gt;3&lt;/font&gt;" style="text;html=1;whiteSpace=wrap;strokeColor=none;fillColor=none;align=center;verticalAlign=middle;rounded=0;" parent="1" vertex="1">
          <mxGeometry x="510" y="610" width="60" height="30" as="geometry" />
        </mxCell>
        <mxCell id="TcX_-UwyAMN_b-jETB6I-69" value="&lt;font style=&quot;font-size: 20px;&quot;&gt;4&lt;/font&gt;" style="text;html=1;whiteSpace=wrap;strokeColor=none;fillColor=none;align=center;verticalAlign=middle;rounded=0;" parent="1" vertex="1">
          <mxGeometry x="740" y="610" width="60" height="30" as="geometry" />
        </mxCell>
        <mxCell id="TcX_-UwyAMN_b-jETB6I-70" value="&lt;font style=&quot;font-size: 20px;&quot;&gt;8&lt;/font&gt;" style="text;html=1;whiteSpace=wrap;strokeColor=none;fillColor=none;align=center;verticalAlign=middle;rounded=0;" parent="1" vertex="1">
          <mxGeometry x="670" y="555" width="60" height="30" as="geometry" />
        </mxCell>
        <mxCell id="TcX_-UwyAMN_b-jETB6I-71" value="&lt;font style=&quot;font-size: 20px;&quot;&gt;7&lt;/font&gt;" style="text;html=1;whiteSpace=wrap;strokeColor=none;fillColor=none;align=center;verticalAlign=middle;rounded=0;" parent="1" vertex="1">
          <mxGeometry x="820" y="550" width="60" height="30" as="geometry" />
        </mxCell>
        <mxCell id="TcX_-UwyAMN_b-jETB6I-72" value="&lt;font style=&quot;font-size: 20px;&quot;&gt;F&lt;/font&gt;" style="text;html=1;whiteSpace=wrap;strokeColor=none;fillColor=none;align=center;verticalAlign=middle;rounded=0;" parent="1" vertex="1">
          <mxGeometry x="840" y="530" width="60" height="30" as="geometry" />
        </mxCell>
        <mxCell id="TcX_-UwyAMN_b-jETB6I-73" value="&lt;font style=&quot;font-size: 20px;&quot;&gt;E&lt;/font&gt;" style="text;html=1;whiteSpace=wrap;strokeColor=none;fillColor=none;align=center;verticalAlign=middle;rounded=0;" parent="1" vertex="1">
          <mxGeometry x="650" y="530" width="60" height="30" as="geometry" />
        </mxCell>
        <mxCell id="TcX_-UwyAMN_b-jETB6I-74" value="&lt;font style=&quot;font-size: 20px; color: light-dark(rgb(0, 0, 0), rgb(51, 255, 51));&quot;&gt;G&lt;/font&gt;" style="text;html=1;whiteSpace=wrap;strokeColor=none;fillColor=none;align=center;verticalAlign=middle;rounded=0;" parent="1" vertex="1">
          <mxGeometry x="740" y="585" width="60" height="30" as="geometry" />
        </mxCell>
        <mxCell id="PNrccCaJJTiCsphR_KJQ-2" value="&lt;font style=&quot;font-size: 20px;&quot;&gt;0|0&lt;/font&gt;" style="text;html=1;whiteSpace=wrap;strokeColor=none;fillColor=none;align=center;verticalAlign=middle;rounded=0;" vertex="1" parent="1">
          <mxGeometry x="87" y="647" width="60" height="30" as="geometry" />
        </mxCell>
        <mxCell id="PNrccCaJJTiCsphR_KJQ-4" value="&lt;font style=&quot;font-size: 20px;&quot;&gt;4|4&lt;/font&gt;" style="text;html=1;whiteSpace=wrap;strokeColor=none;fillColor=none;align=center;verticalAlign=middle;rounded=0;" vertex="1" parent="1">
          <mxGeometry x="280" y="870" width="60" height="30" as="geometry" />
        </mxCell>
        <mxCell id="PNrccCaJJTiCsphR_KJQ-5" value="&lt;font style=&quot;font-size: 20px;&quot;&gt;4|4&lt;/font&gt;" style="text;html=1;whiteSpace=wrap;strokeColor=none;fillColor=none;align=center;verticalAlign=middle;rounded=0;" vertex="1" parent="1">
          <mxGeometry x="280" y="540" width="60" height="30" as="geometry" />
        </mxCell>
        <mxCell id="PNrccCaJJTiCsphR_KJQ-6" value="&lt;font style=&quot;font-size: 20px;&quot;&gt;16|16&lt;/font&gt;" style="text;html=1;whiteSpace=wrap;strokeColor=none;fillColor=none;align=center;verticalAlign=middle;rounded=0;" vertex="1" parent="1">
          <mxGeometry x="440" y="540" width="60" height="30" as="geometry" />
        </mxCell>
        <mxCell id="PNrccCaJJTiCsphR_KJQ-7" value="&lt;font style=&quot;font-size: 20px;&quot;&gt;19|19&lt;/font&gt;" style="text;html=1;whiteSpace=wrap;strokeColor=none;fillColor=none;align=center;verticalAlign=middle;rounded=0;" vertex="1" parent="1">
          <mxGeometry x="580" y="540" width="60" height="30" as="geometry" />
        </mxCell>
        <mxCell id="PNrccCaJJTiCsphR_KJQ-8" value="&lt;font style=&quot;font-size: 20px;&quot;&gt;27|27&lt;/font&gt;" style="text;html=1;whiteSpace=wrap;strokeColor=none;fillColor=none;align=center;verticalAlign=middle;rounded=0;" vertex="1" parent="1">
          <mxGeometry x="740" y="440" width="60" height="30" as="geometry" />
        </mxCell>
        <mxCell id="PNrccCaJJTiCsphR_KJQ-9" value="&lt;font style=&quot;font-size: 20px;&quot;&gt;29|29&lt;/font&gt;" style="text;html=1;whiteSpace=wrap;strokeColor=none;fillColor=none;align=center;verticalAlign=middle;rounded=0;" vertex="1" parent="1">
          <mxGeometry x="930" y="540" width="60" height="30" as="geometry" />
        </mxCell>
      </root>
    </mxGraphModel>
  </diagram>
</mxfile>
